<?xml version="1.0" encoding="iso-8859-1"?>
<!-- Uploaded to: SVG Repo, www.svgrepo.com, Generator: SVG Repo Mixer Tools -->
<svg version="1.1" id="Layer_1" xmlns="http://www.w3.org/2000/svg" xmlns:xlink="http://www.w3.org/1999/xlink" 
	 viewBox="0 0 512 512" xml:space="preserve">
<path style="fill:#00B3E3;" d="M463.54,176.842c-2.929-4.917-10.004-8.938-15.724-8.938H64.186c-5.722,0-12.799,4.022-15.726,8.938
	l-29.991,50.363c-2.928,4.916-0.642,8.938,5.079,8.938h464.904c5.721,0,8.007-4.022,5.081-8.938L463.54,176.842z"/>
<path style="opacity:0.1;enable-background:new    ;" d="M31.141,205.922h187.752v-15.877H40.597L31.141,205.922z M471.403,190.045
	H290.971v15.877h189.887L471.403,190.045z"/>
<polygon style="fill:#D1D3D3;" points="308.986,233.601 254.929,146.839 200.873,233.601 19.425,233.601 19.425,443.53 
	490.431,443.53 490.431,233.601 "/>
<path style="opacity:0.1;enable-background:new    ;" d="M325.892,244.88c-3.927,0-8.847-2.723-10.93-6.05l-3.277-5.228h-2.7
	L258.61,152.75c-2.403-1.085-4.962-1.083-7.365,0.002l-50.373,80.85h-2.694l-3.277,5.228c-2.085,3.328-7.004,6.05-10.931,6.05
	H19.425v27.897h173.408c3.927,0,8.754-2.777,10.728-6.173l42.345-64.836c4.963-8.468,13.088-8.468,18.051,0l42.345,64.836
	c1.974,3.396,6.801,6.173,10.728,6.173h173.401V244.88H325.892z"/>
<g>
	<rect x="444.685" y="277.775" style="fill:#A4A9AD;" width="45.747" height="22.015"/>
	<rect x="307.465" y="323.353" style="fill:#A4A9AD;" width="45.747" height="22.013"/>
	<rect x="390.312" y="401.5" style="fill:#A4A9AD;" width="45.747" height="22.013"/>
	<rect x="152.865" y="407.343" style="fill:#A4A9AD;" width="45.747" height="22.014"/>
	<rect x="19.425" y="298.913" style="fill:#A4A9AD;" width="45.747" height="22.014"/>
	<rect x="129.991" y="253.346" style="fill:#A4A9AD;" width="45.747" height="22.013"/>
</g>
<rect x="215.643" y="335.441" style="fill:#333E48;" width="78.581" height="108.091"/>
<rect x="215.643" y="335.441" style="opacity:0.1;enable-background:new    ;" width="78.581" height="13.662"/>
<g>
	<rect x="230.631" y="360.453" style="fill:#FFFFFF;" width="15.877" height="29.912"/>
	<rect x="263.348" y="360.453" style="fill:#FFFFFF;" width="15.877" height="29.912"/>
	<rect x="133.484" y="317.214" style="fill:#FFFFFF;" width="46.184" height="63.54"/>
</g>
<rect x="133.484" y="317.214" style="opacity:0.2;enable-background:new    ;" width="46.184" height="14.012"/>
<rect x="43.863" y="317.214" style="fill:#FFFFFF;" width="46.184" height="63.54"/>
<rect x="43.863" y="317.214" style="opacity:0.2;enable-background:new    ;" width="46.184" height="14.012"/>
<rect x="330.19" y="317.214" style="fill:#FFFFFF;" width="46.184" height="63.54"/>
<rect x="330.19" y="317.214" style="opacity:0.2;enable-background:new    ;" width="46.184" height="14.012"/>
<rect x="419.811" y="317.214" style="fill:#FFFFFF;" width="46.184" height="63.54"/>
<rect x="419.811" y="317.214" style="opacity:0.2;enable-background:new    ;" width="46.184" height="14.012"/>
<rect x="254.933" y="51.908" style="fill:#FFB819;" width="91.695" height="52.554"/>
<rect x="254.933" y="51.908" style="opacity:0.1;enable-background:new    ;" width="24.006" height="52.554"/>
<path style="fill:#0071CE;" d="M264.411,138.744c-5.213-8.317-13.744-8.317-18.957,0l-50.552,80.665
	c-2.085,3.327-7.004,6.05-10.931,6.05H15.078c-3.926,0-7.139,3.212-7.139,7.138v13.618c0,3.926,3.214,7.139,7.139,7.139h177.756
	c3.927,0,8.754-2.777,10.728-6.172l42.345-64.837c4.963-8.469,13.088-8.469,18.051,0l42.345,64.837
	c1.974,3.395,6.801,6.172,10.728,6.172h177.752c3.927,0,7.14-3.214,7.14-7.139v-13.618c0-3.926-3.214-7.138-7.14-7.138h-168.89
	c-3.927,0-8.847-2.722-10.93-6.05L264.411,138.744z"/>
<circle style="fill:#FFFFFF;" cx="254.933" cy="277.775" r="36.041"/>
<path style="fill:#00AD68;" d="M504.061,463.109c0,2.352-1.923,4.276-4.275,4.276H12.215c-2.352,0-4.276-1.924-4.276-4.276v-15.302
	c0-2.352,1.924-4.276,4.276-4.276h487.571c2.352,0,4.275,1.924,4.275,4.276V463.109z"/>
<rect x="191.965" y="443.532" style="fill:#A4A9AD;" width="128.065" height="23.855"/>
<g>
	<path style="fill:#218649;" d="M479.093,443.53c0-19.984-16.2-36.184-36.184-36.184c-19.984,0-36.184,16.2-36.184,36.184H479.093z"
		/>
	<path style="fill:#218649;" d="M126.231,443.53c0-19.984-16.2-36.184-36.184-36.184s-36.184,16.2-36.184,36.184H126.231z"/>
</g>
<path style="fill:#1E252B;" d="M376.376,309.281h-46.184c-4.384,0-7.939,3.554-7.939,7.939v63.543c0,4.384,3.554,7.939,7.939,7.939
	h46.184c4.384,0,7.939-3.554,7.939-7.939v-63.543C384.314,312.835,380.76,309.281,376.376,309.281z M368.437,372.824H338.13V356.93
	h30.307V372.824z M368.437,341.053H338.13v-15.895h30.307V341.053z M473.94,317.219c0-4.384-3.554-7.939-7.939-7.939h-46.184
	c-4.384,0-7.939,3.554-7.939,7.939v63.543c0,4.384,3.554,7.939,7.939,7.939h46.184c4.384,0,7.939-3.554,7.939-7.939V317.219z
	 M458.063,372.824h-30.307V356.93h30.307V372.824z M458.063,341.053h-30.307v-15.895h30.307V341.053z M90.047,309.281H43.862
	c-4.384,0-7.939,3.554-7.939,7.939v63.543c0,4.384,3.554,7.939,7.939,7.939h46.184c4.384,0,7.939-3.554,7.939-7.939v-63.543
	C97.986,312.835,94.432,309.281,90.047,309.281z M82.109,372.824H51.801V356.93h30.307v15.894H82.109z M82.109,341.053H51.801
	v-15.895h30.307v15.895H82.109z M499.786,435.592h-1.408v-174.75c6.582-1.618,11.483-7.553,11.483-14.626v-13.618
	c0-7.515-5.534-13.745-12.738-14.877l-26.765-44.942c-4.351-7.305-14.044-12.814-22.544-12.814H287.078l-15.942-25.437
	c-2.232-3.562-5.077-6.268-8.268-7.954v-14.17h83.76c4.384,0,7.939-3.554,7.939-7.939V51.91c0-4.384-3.554-7.939-7.939-7.939
	h-83.792c-0.329-4.083-3.74-7.295-7.906-7.295c-4.384,0-7.939,3.554-7.939,7.939v81.958c-3.189,1.687-6.034,4.394-8.266,7.954
	l-15.941,25.437h-158.6c-8.504,0-18.197,5.509-22.547,12.815l-26.645,44.745C6.718,217.571,0,224.312,0,232.597v13.618
	c0,7.075,4.904,13.01,11.487,14.627v174.786C5.09,436.009,0,441.318,0,447.806v15.302c0,6.735,5.48,12.215,12.215,12.215h487.571
	c6.735,0,12.214-5.48,12.214-12.215v-15.302C512,441.071,506.52,435.592,499.786,435.592z M262.869,59.849h75.822v36.677H262.87
	L262.869,59.849L262.869,59.849z M447.816,175.841c2.916,0,7.41,2.555,8.904,5.062l21.807,36.617H325.892
	c-1.18,0-3.577-1.325-4.203-2.327l-24.661-39.352L447.816,175.841L447.816,175.841z M55.281,180.903
	c1.492-2.506,5.987-5.061,8.905-5.061h148.651l-24.66,39.351c-0.627,1-3.023,2.328-4.204,2.328H33.475L55.281,180.903z
	 M15.877,233.397h168.095c6.682,0,14.108-4.11,17.657-9.773l50.552-80.665c1.157-1.846,2.279-2.515,2.752-2.515
	c0.472,0,1.595,0.67,2.752,2.515l50.551,80.663c3.548,5.664,10.974,9.775,17.659,9.775h168.093v12.019H317.03
	c-1.105,0-3.309-1.268-3.864-2.224l-42.465-65.039c-3.829-6.421-9.565-10.097-15.769-10.097c-6.204,0-11.941,3.677-15.769,10.096
	l-42.249,64.691l-0.216,0.349c-0.556,0.956-2.76,2.225-3.866,2.225H15.877V233.397z M442.909,399.408
	c-21.618,0-39.642,15.632-43.393,36.184h-97.36V327.504h-94.454v108.089h-74.262c-3.751-20.552-21.775-36.184-43.393-36.184
	s-39.642,15.632-43.393,36.184h-19.29V261.294h165.47c6.701,0,14.005-4.156,17.467-9.912l42.253-64.695l0.202-0.327
	c1.063-1.814,1.989-2.378,2.124-2.432c0.24,0.054,1.166,0.618,2.229,2.432l42.453,65.019c3.461,5.757,10.766,9.914,17.468,9.914
	h165.471v162.788C475.298,409.48,460.261,399.408,442.909,399.408z M470.01,435.592h-54.203
	c3.439-11.722,14.283-20.307,27.101-20.307C455.727,415.285,466.571,423.871,470.01,435.592z M286.279,343.381v92.212h-62.7v-92.212
	H286.279z M117.149,435.592H62.945c3.439-11.722,14.283-20.307,27.101-20.307C102.866,415.285,113.71,423.871,117.149,435.592z
	 M184.028,459.446H15.877v-7.978h168.151V459.446z M312.094,459.446H199.905v-7.978h112.189V459.446z M496.123,459.446H327.971
	v-7.978h168.151v7.978H496.123z M254.932,233.799c-24.25,0-43.977,19.728-43.977,43.976c0,24.25,19.728,43.977,43.977,43.977
	c24.249,0,43.976-19.728,43.976-43.977C298.908,253.527,279.181,233.799,254.932,233.799z M254.932,305.876
	c-15.495,0-28.1-12.605-28.1-28.1c0-15.494,12.605-28.099,28.1-28.099c15.494,0,28.099,12.605,28.099,28.099
	C283.031,293.27,270.426,305.876,254.932,305.876z M268.737,269.837h-5.866v-5.866c0-4.384-3.554-7.939-7.939-7.939
	s-7.939,3.554-7.939,7.939v13.805c0,4.384,3.554,7.939,7.939,7.939h13.805c4.384,0,7.939-3.554,7.939-7.939
	S273.121,269.837,268.737,269.837z M179.672,309.281h-46.184c-4.384,0-7.939,3.554-7.939,7.939v63.543
	c0,4.384,3.554,7.939,7.939,7.939h46.184c4.384,0,7.939-3.554,7.939-7.939v-63.543C187.611,312.835,184.058,309.281,179.672,309.281
	z M171.734,372.824h-30.307V356.93h30.307V372.824z M171.734,341.053h-30.307v-15.895h30.307V341.053z"/>
</svg>